<svg width="30" height="29" viewBox="0 0 30 29" fill="none" xmlns="http://www.w3.org/2000/svg">
<path d="M29.5 14.5C29.5 22.5081 23.0081 29 15 29C6.99187 29 0.5 22.5081 0.5 14.5C0.5 6.49187 6.99187 0 15 0C23.0081 0 29.5 6.49187 29.5 14.5ZM2.74963 14.5C2.74963 21.2657 8.2343 26.7504 15 26.7504C21.7657 26.7504 27.2504 21.2657 27.2504 14.5C27.2504 7.7343 21.7657 2.24963 15 2.24963C8.2343 2.24963 2.74963 7.7343 2.74963 14.5Z" fill="#F7F7F7"/>
<path d="M2.13927 21.1971C0.964869 18.9419 0.404157 16.4175 0.513385 13.8771C0.622613 11.3368 1.39794 8.86979 2.76159 6.72367C4.12524 4.57755 6.02926 2.82776 8.28266 1.64981C10.5361 0.471865 13.0596 -0.0928126 15.6001 0.0124241L15.507 2.26012C13.3606 2.17121 11.2286 2.64828 9.32483 3.64347C7.42104 4.63867 5.81242 6.11699 4.66034 7.93014C3.50825 9.74329 2.85321 11.8275 2.76093 13.9738C2.66865 16.12 3.14237 18.2528 4.13457 20.1581L2.13927 21.1971Z" fill="#FF647C"/>
<path d="M15.0647 11.258L13.2447 12.196L12.6707 11.006L15.4707 9.55H16.4087V19H15.0647V11.258Z" fill="black"/>
</svg>
