<svg width="30" height="29" viewBox="0 0 30 29" fill="none" xmlns="http://www.w3.org/2000/svg">
<path d="M29.5 14.5C29.5 22.5081 23.0081 29 15 29C6.99187 29 0.5 22.5081 0.5 14.5C0.5 6.49187 6.99187 0 15 0C23.0081 0 29.5 6.49187 29.5 14.5ZM2.74963 14.5C2.74963 21.2657 8.2343 26.7504 15 26.7504C21.7657 26.7504 27.2504 21.2657 27.2504 14.5C27.2504 7.7343 21.7657 2.24963 15 2.24963C8.2343 2.24963 2.74963 7.7343 2.74963 14.5Z" fill="#F7F7F7"/>
<path d="M2.13927 21.1971C0.964869 18.9419 0.404157 16.4175 0.513385 13.8771C0.622613 11.3368 1.39794 8.86979 2.76159 6.72367C4.12524 4.57755 6.02926 2.82776 8.28266 1.64981C10.5361 0.471864 13.0596 -0.092813 15.6001 0.0124243C18.1407 0.117662 20.6088 0.889113 22.7571 2.24939C24.9054 3.60967 26.6581 5.51094 27.8396 7.76249C29.0211 10.014 29.5897 12.5367 29.4885 15.0774C29.3873 17.6181 28.6197 20.0875 27.2628 22.2378L25.3603 21.0373C26.5066 19.2206 27.1551 17.1343 27.2407 14.9878C27.3262 12.8413 26.8458 10.71 25.8476 8.80779C24.8494 6.90556 23.3686 5.29927 21.5536 4.15003C19.7386 3.0008 17.6534 2.34903 15.507 2.26012C13.3606 2.17121 11.2286 2.64828 9.32483 3.64347C7.42104 4.63866 5.81242 6.11699 4.66034 7.93014C3.50825 9.74329 2.85321 11.8275 2.76093 13.9738C2.66865 16.12 3.14237 18.2528 4.13457 20.1581L2.13927 21.1971Z" fill="#F9C162"/>
<path d="M16.739 12.28C16.739 11.846 16.557 11.468 16.193 11.146C15.843 10.824 15.409 10.67 14.891 10.67C13.981 10.67 13.225 11.258 12.847 12.196L11.587 11.594C12.189 10.25 13.421 9.382 14.891 9.382C15.801 9.382 16.557 9.662 17.187 10.222C17.817 10.782 18.139 11.454 18.139 12.238C18.139 13.246 17.495 14.184 16.137 15.486L13.827 17.698H18.251V19H11.727V17.992L15.269 14.59C16.263 13.624 16.739 12.952 16.739 12.28Z" fill="black"/>
</svg>
