<svg width="30" height="29" viewBox="0 0 30 29" fill="none" xmlns="http://www.w3.org/2000/svg">
<path d="M29.5 14.5C29.5 22.5081 23.0081 29 15 29C6.99187 29 0.5 22.5081 0.5 14.5C0.5 6.49187 6.99187 0 15 0C23.0081 0 29.5 6.49187 29.5 14.5ZM2.74963 14.5C2.74963 21.2657 8.2343 26.7504 15 26.7504C21.7657 26.7504 27.2504 21.2657 27.2504 14.5C27.2504 7.7343 21.7657 2.24963 15 2.24963C8.2343 2.24963 2.74963 7.7343 2.74963 14.5Z" fill="#F7F7F7"/>
<path d="M29.5 14.5C29.5 22.5081 23.0081 29 15 29C6.99187 29 0.5 22.5081 0.5 14.5C0.5 6.49187 6.99187 0 15 0C23.0081 0 29.5 6.49187 29.5 14.5ZM2.74963 14.5C2.74963 21.2657 8.2343 26.7504 15 26.7504C21.7657 26.7504 27.2504 21.2657 27.2504 14.5C27.2504 7.7343 21.7657 2.24963 15 2.24963C8.2343 2.24963 2.74963 7.7343 2.74963 14.5Z" fill="#7CCEB9"/>
<path d="M16.6983 12.098C16.6983 11.692 16.5163 11.356 16.1523 11.09C15.7883 10.81 15.3263 10.67 14.7803 10.67C13.8843 10.67 13.1563 11.076 12.8623 11.692L11.6443 11.09C12.1623 10.04 13.3383 9.382 14.7803 9.382C15.7323 9.382 16.5163 9.634 17.1463 10.152C17.7763 10.67 18.0843 11.3 18.0843 12.056C18.0843 12.938 17.6643 13.624 16.8383 14.114C17.7483 14.576 18.3223 15.416 18.3223 16.382C18.3223 17.18 17.9863 17.838 17.3283 18.37C16.6703 18.902 15.8443 19.168 14.8503 19.168C13.2683 19.168 11.9803 18.398 11.5183 17.222L12.8203 16.746C13.0863 17.418 13.8563 17.866 14.8503 17.866C16.0263 17.866 16.9223 17.208 16.9223 16.312C16.9223 15.878 16.7263 15.528 16.3343 15.234C15.9423 14.94 15.4663 14.8 14.8923 14.8H14.1783V13.554H14.6823C15.8163 13.554 16.6983 12.938 16.6983 12.098Z" fill="black"/>
</svg>
