<svg width="117" height="73" viewBox="0 0 117 73" fill="none" xmlns="http://www.w3.org/2000/svg">
<path opacity="0.4" fill-rule="evenodd" clip-rule="evenodd" d="M20.3191 33.3889C19.7844 31.3114 19.5 29.1334 19.5 26.8889C19.5 12.5295 31.1406 0.888916 45.5 0.888916C55.9794 0.888916 65.0107 7.08863 69.1263 16.0203C71.7881 14.6577 74.8043 13.8889 78 13.8889C88.7696 13.8889 97.5 22.6194 97.5 33.3889C108.27 33.3889 117 42.1194 117 52.8889C117 63.6585 108.27 72.3889 97.5 72.3889H19.5C8.73045 72.3889 0 63.6585 0 52.8889C0 42.1194 8.73045 33.3889 19.5 33.3889H20.3191Z" fill="#D9D9D9"/>
</svg>
