<svg width="35" height="22" viewBox="0 0 35 22" fill="none" xmlns="http://www.w3.org/2000/svg">
<path opacity="0.4" fill-rule="evenodd" clip-rule="evenodd" d="M6.07837 9.72222C5.91841 9.10074 5.83333 8.44919 5.83333 7.77778C5.83333 3.48223 9.31556 0 13.6111 0C16.746 0 19.4476 1.85462 20.6788 4.52649C21.4751 4.11886 22.3773 3.88889 23.3333 3.88889C26.555 3.88889 29.1667 6.50056 29.1667 9.72222C32.3883 9.72222 35 12.3339 35 15.5556C35 18.7772 32.3883 21.3889 29.1667 21.3889H5.83333C2.61167 21.3889 0 18.7772 0 15.5556C0 12.3339 2.61167 9.72222 5.83333 9.72222H6.07837Z" fill="#D9D9D9"/>
</svg>
