<svg width="19" height="13" viewBox="0 0 19 13" fill="none" xmlns="http://www.w3.org/2000/svg">
<path opacity="0.4" fill-rule="evenodd" clip-rule="evenodd" d="M15.8333 6.05558C15.8333 4.30669 14.4156 2.88893 12.6667 2.88893C12.1477 2.88893 11.6579 3.01377 11.2256 3.23506C10.5573 1.7846 9.09066 0.777802 7.38888 0.777802C5.05701 0.777802 3.16666 2.66815 3.16666 5.00002C3.16666 5.36451 3.21284 5.71821 3.29967 6.05558H3.16667C1.41776 6.05558 0 7.47335 0 9.22225C0 10.9712 1.41776 12.3889 3.16667 12.3889H15.8333C17.5822 12.3889 19 10.9712 19 9.22225C19 7.47335 17.5822 6.05558 15.8333 6.05558Z" fill="#D9D9D9"/>
</svg>
