<svg width="306" height="259" viewBox="0 0 306 259" fill="none" xmlns="http://www.w3.org/2000/svg">
<path d="M153.412 258.498C237.684 258.498 306 256.254 306 253.486C306 250.718 237.684 248.474 153.412 248.474C69.14 248.474 0.823975 250.718 0.823975 253.486C0.823975 256.254 69.14 258.498 153.412 258.498Z" fill="black" fill-opacity="0.1"/>
<path d="M156.492 231.72L143.077 224.214L156.953 201.888L170.368 209.394L156.492 231.72Z" fill="#FABBB8"/>
<path d="M143.475 218.962L161.468 229.029C161.468 229.029 159.587 233.095 164.947 236.881C170.307 240.668 171.777 245.427 169.963 249.726L134.289 229.765C134.289 229.765 137.267 225.133 143.475 218.962Z" fill="#FFFEFF"/>
<path d="M169.967 249.733L134.292 229.772L132.866 232.321L168.541 252.282L169.967 249.733Z" fill="#070924"/>
<path d="M138.744 224.028C138.744 224.028 145.118 228.497 141.995 234.078" stroke="#070924" stroke-width="0.4206" stroke-miterlimit="10"/>
<path d="M161.43 232.987C161.43 232.987 160.312 232.347 157.138 232.781" stroke="#070924" stroke-width="0.4206" stroke-miterlimit="10" stroke-linecap="round" stroke-linejoin="round"/>
<path d="M163.065 235.398C163.065 235.398 160.934 234.352 158.807 235.253" stroke="#070924" stroke-width="0.4206" stroke-miterlimit="10" stroke-linecap="round" stroke-linejoin="round"/>
<path d="M208.707 107.92C208.707 107.92 208.293 138.46 198.214 171.98L167.569 224.86L145.09 211.602L173.09 164.136L183.581 105.686L208.707 107.92Z" fill="#A0BFFF"/>
<path d="M250.158 232.023L236.675 239.404L225.126 215.79L238.61 208.41L250.158 232.023Z" fill="#FABBB8"/>
<path d="M232.436 236.279L250.523 226.379C250.523 226.379 252.969 230.13 259.024 227.599C265.078 225.067 269.893 226.349 272.571 230.17L236.712 249.798C236.712 249.798 234.368 244.815 232.436 236.279Z" fill="#FFFEFF"/>
<path d="M272.588 230.165L236.729 249.795L238.131 252.355L273.99 232.725L272.588 230.165Z" fill="#070924"/>
<path d="M234.216 242.977C234.216 242.977 241.387 239.948 244.459 245.559" stroke="#070924" stroke-width="0.4206" stroke-miterlimit="10"/>
<path d="M253.856 228.512C253.856 228.512 252.719 229.119 251.402 232.04" stroke="#070924" stroke-width="0.4206" stroke-miterlimit="10" stroke-linecap="round" stroke-linejoin="round"/>
<path d="M256.767 228.406C256.767 228.406 254.749 229.657 254.383 231.937" stroke="#070924" stroke-width="0.4206" stroke-miterlimit="10" stroke-linecap="round" stroke-linejoin="round"/>
<path d="M173.739 100.192C173.739 100.192 165.713 115.429 178.821 136.448L228.412 231.496L247.931 221.044L197.371 104.9L173.739 100.192Z" fill="#A0BFFF"/>
<path d="M178.232 135.485L197.764 172.756" stroke="#83ABF2" stroke-width="0.6995" stroke-miterlimit="10"/>
<path d="M207.062 127.162L203.019 117.874" stroke="#83ABF2" stroke-width="0.6995" stroke-miterlimit="10"/>
<path d="M222.094 82.1807L218.003 62.0467L203.85 68.2135L212.231 91.9671L220.603 95.0583L222.094 82.1807Z" fill="#FABBB8"/>
<path d="M227.653 127.219L212.231 91.9671C211.601 90.3576 213.856 84.3954 215.257 83.3825C217.316 81.8937 222.094 82.1807 222.094 82.1807L235.198 125.456L227.653 127.219Z" fill="#FABBB8"/>
<path d="M227.182 124.23L225.846 126.935C225.15 128.344 224.926 129.867 225.203 131.296L226.389 137.413C226.518 138.077 227.165 138.5 227.916 138.41C228.777 138.308 229.456 137.575 229.416 136.791L229.19 132.242C229.19 132.242 231.092 135.066 232.317 140.599C232.56 141.695 233.87 142.175 234.993 141.563C236.864 140.544 238.94 138.913 238.816 136.897C238.455 131.019 234.449 123.257 234.449 123.257L227.182 124.23Z" fill="#FABBB8"/>
<path d="M214.443 49.7174C214.443 49.7174 219.358 50.0654 220.124 57.4553C220.891 64.8466 224.42 77.926 224.42 77.926C224.42 77.926 214.759 80.949 210.383 79.7017L214.443 49.7174Z" fill="#6E9AA3"/>
<path d="M165.274 61.6702L149.169 83.6069C148.188 85.1169 146.97 87.8814 146.644 89.6529L141.497 116.891L150.265 117.678L158.542 89.7196L175.927 69.3882L165.274 61.6702Z" fill="#FABBB8"/>
<path d="M151.577 121.129C151.791 117.147 148.737 113.745 144.755 113.53C140.773 113.316 137.372 116.37 137.156 120.352C136.942 124.334 139.994 127.736 143.978 127.95C147.96 128.165 151.362 125.111 151.577 121.129Z" fill="#FABBB8"/>
<path d="M138.878 125.423C138.878 125.423 135.684 126.223 135.598 122.434C135.511 118.647 137.493 113.706 144.756 113.53L138.878 125.423Z" fill="#FABBB8"/>
<path d="M179.602 46.4131C179.602 46.4131 170.78 46.9259 167.277 52.2474C162.843 58.9839 153.842 69.8869 153.842 69.8869L175.91 81.8667L179.602 46.4131Z" fill="#6E9AA3"/>
<path d="M178.116 46.5608L197.206 43.4554L214.442 49.7188C214.442 49.7188 213.149 96.503 208.705 107.922C208.705 107.922 188.542 115.567 168.734 105.967L175.928 48.7727C176.011 47.5936 176.94 46.6546 178.116 46.5608Z" fill="#6E9AA3"/>
<path d="M212.973 80.0028L213.94 65.3026" stroke="#49797F" stroke-width="0.6995" stroke-miterlimit="10" stroke-linecap="round" stroke-linejoin="round"/>
<path d="M172.047 79.635L181.344 64.3821" stroke="#49797F" stroke-width="0.6995" stroke-miterlimit="10" stroke-linecap="round" stroke-linejoin="round"/>
<path d="M184.588 11.3928C184.588 11.3928 174.628 17.4658 183.621 20.736L184.588 11.3928Z" fill="#C14734"/>
<path d="M188.542 24.8855C188.6 27.2693 186.775 29.2567 184.465 29.322C182.155 29.3888 180.236 27.5093 180.179 25.1256C180.12 22.7419 181.946 20.7545 184.256 20.6891C186.564 20.6223 188.483 22.5004 188.542 24.8855Z" fill="#F0A7A4"/>
<path d="M190.61 32.7855L190.137 44.6048C189.966 48.4645 192.188 49.7956 195.872 49.9135C199.016 50.0144 202.513 49.0001 202.519 45.5907L203.773 28.0493L190.61 32.7855Z" fill="#FABBB8"/>
<path d="M190.17 43.2353C190.17 43.2353 196.079 42.1429 202.65 34.2259C204.624 31.8464 190.593 32.7826 190.593 32.7826L190.17 43.2353Z" fill="#F0A7A4"/>
<path d="M193.315 38.2831C187.428 38.0473 182.773 33.0525 182.811 28.0819L182.946 17.6832C182.993 11.4525 187.819 6.37108 193.85 6.19777C200.026 6.0202 206.239 11.0136 206.394 17.3891L206.191 25.4908C206.016 32.7855 200.379 38.08 193.315 38.2831Z" fill="#FABBB8"/>
<path d="M188.893 26.1995L188.503 28.9342L189.957 29.0521" stroke="black" stroke-width="0.4245" stroke-miterlimit="10" stroke-linecap="round" stroke-linejoin="round"/>
<path d="M195.721 20.0385C195.721 20.0385 193.319 19.7303 193.251 20.7431C193.251 20.7431 193.223 21.4293 195.321 21.6566C197.419 21.8824 197.972 21.7475 198.192 21.1111C198.412 20.4746 196.852 20.0939 195.721 20.0385Z" fill="black"/>
<path d="M185.745 21.0059C185.745 21.0059 187.743 20.8795 187.866 21.8384C187.866 21.8384 187.932 22.4876 186.184 22.5572C184.435 22.6282 183.878 22.374 183.736 21.8469C183.574 21.2503 184.797 20.9818 185.745 21.0059Z" fill="black"/>
<path d="M186.854 24.7946C186.847 25.3728 186.388 25.8359 185.828 25.8316C185.269 25.8259 184.821 25.3543 184.827 24.7761C184.834 24.198 185.291 23.7348 185.851 23.7391C186.412 23.7448 186.86 24.2178 186.854 24.7946Z" fill="black"/>
<path d="M195.734 24.8727C195.727 25.4509 195.27 25.914 194.71 25.9098C194.15 25.9041 193.703 25.4324 193.708 24.8543C193.715 24.2761 194.174 23.813 194.733 23.8172C195.292 23.8215 195.74 24.2945 195.734 24.8727Z" fill="black"/>
<path d="M188.503 30.6559L194.076 30.9713C194.076 30.9713 193.853 32.9402 191.211 32.9402C188.596 32.9402 188.503 30.6559 188.503 30.6559Z" fill="white"/>
<path d="M202.973 25.6853C202.973 25.6853 200.595 25.306 202.138 20.5286C203.682 15.7512 201.486 14.4599 199.582 15.021C197.679 15.5807 186.985 19.2799 179.968 14.9926C171.416 9.76625 180.403 8.42806 181.65 8.44227C181.65 8.44227 176.805 6.33838 177.801 4.92916C178.796 3.51994 186.851 4.13079 186.851 4.13079C186.851 4.13079 185.409 2.21726 188.54 1.72431C191.673 1.23137 203.773 1.23848 208.944 9.33866C214.116 17.4388 206.829 28.1458 206.829 28.1458L202.973 25.6853Z" fill="#DA6048"/>
<path d="M211.611 25.5135C211.667 27.8745 209.86 29.842 207.573 29.9073C205.286 29.9727 203.387 28.1117 203.329 25.7521C203.272 23.3911 205.079 21.4236 207.366 21.3582C209.653 21.2915 211.554 23.1524 211.611 25.5135Z" fill="#FABBB8"/>
<path d="M206.053 26.9454C206.053 26.9454 205.978 23.8457 208.86 24.252" stroke="black" stroke-width="0.4245" stroke-miterlimit="10" stroke-linecap="round" stroke-linejoin="round"/>
<path d="M121.993 244.392L129.42 248.057C130.207 248.445 130.684 249.335 130.44 250.178C130.246 250.844 129.617 251.458 127.965 251.487C124.294 251.553 108.044 249.021 108.044 249.021V250.726L100.505 249.874C100.505 249.874 99.978 241.252 102.274 239.989L121.993 244.392Z" fill="black"/>
<path d="M110.022 236.804L121.993 244.392C121.993 244.392 120.713 247.683 115.043 245.488C109.374 243.294 102.272 239.988 102.272 239.988L103.308 234.83L110.022 236.804Z" fill="#FABBB8"/>
<path d="M102.272 239.988L100.467 208.018L112.424 210.194L111.343 239.891L102.272 239.988Z" fill="#FABBB8"/>
<path d="M117.761 92.0296C117.761 92.0296 121.815 115.979 119.137 152.574C116.46 189.168 114.675 224.462 114.675 224.462L95.9322 225.346L93.743 134.129L105.753 90.9542L117.761 92.0296Z" fill="#6E9AA3"/>
<path d="M57.0266 239.236L61.0867 246.454C61.5171 247.219 61.4091 248.223 60.7301 248.78C60.1945 249.22 59.328 249.372 57.9486 248.463C54.8815 246.444 42.8989 235.179 42.8989 235.179L41.9357 236.586L36.1937 231.625C36.1937 231.625 40.6274 224.211 43.2342 224.467L57.0266 239.236Z" fill="black"/>
<path d="M51.4309 226.217L57.0266 239.238C57.0266 239.238 54.1115 241.232 50.6709 236.219C47.2302 231.207 43.2355 224.468 43.2355 224.468L47.0029 220.796L51.4309 226.217Z" fill="#FABBB8"/>
<path d="M43.2355 224.468L59.7982 197.062L68.4381 205.61L50.7774 229.51L43.2355 224.468Z" fill="#FABBB8"/>
<path d="M78.5897 147.126C78.5897 147.126 56.5138 184.724 41.9372 211.201L59.9659 223.205L96.1056 164.154L78.5897 147.126Z" fill="#6E9AA3"/>
<path d="M82.1085 110.959L71.4754 164.34L96.1055 164.156C103.497 144.596 111.65 115.989 111.353 90.9528H92.9802L82.1085 110.959Z" fill="#6E9AA3"/>
<path d="M113.224 116.549L107.925 121.787C107.925 121.787 103.926 148.516 94.6281 166.566" stroke="#49797F" stroke-width="0.6995" stroke-miterlimit="10" stroke-linecap="round" stroke-linejoin="round"/>
<path d="M100.482 94.5881C100.482 94.5881 111.361 96.5073 117.761 92.0282L116.562 57.6315L112.981 41.3303L110.442 39.4054L104.861 43.4498L96.5815 43.3461L93.7417 45.5068V48.831L100.482 94.5881Z" fill="white"/>
<path d="M93.7417 40.1811C93.7417 40.1811 109.344 54.2151 106.747 81.1749C104.149 108.135 91.1221 117.374 76.6165 115.421L84.738 89.7723L77.4859 65.9235L85.9938 43.8533C86.4115 42.7694 87.3192 41.9483 88.4386 41.64L93.7417 40.1811Z" fill="#F9C162"/>
<path d="M57.9215 131.275C57.5224 127.662 60.1277 124.409 63.7403 124.01C67.3528 123.611 70.606 126.216 71.0052 129.829C71.4043 133.441 68.799 136.694 65.1864 137.093C61.5739 137.494 58.3207 134.889 57.9215 131.275Z" fill="#FABBB8"/>
<path d="M69.6997 134.534C69.6997 134.534 72.6474 135.098 72.5323 131.646C72.4172 128.193 70.3602 123.798 63.7403 124.01L69.6997 134.534Z" fill="#FABBB8"/>
<path d="M87.3789 42.1301C87.3789 42.1301 54.1372 63.6875 58.2299 125.421H71.582C71.582 125.421 73.4259 82.489 88.4628 66.0073L87.3789 42.1301Z" fill="#F9C162"/>
<path d="M81.1865 77.9275C81.1865 77.9275 84.5007 70.3046 88.4628 66.0073" stroke="#DD577A" stroke-width="0.7105" stroke-miterlimit="10" stroke-linecap="round" stroke-linejoin="round"/>
<path d="M133.971 120.677C133.572 117.065 136.177 113.811 139.79 113.412C143.403 113.013 146.656 115.618 147.055 119.231C147.454 122.845 144.849 126.097 141.236 126.496C137.624 126.895 134.37 124.291 133.971 120.677Z" fill="#FABBB8"/>
<path d="M145.749 123.936C145.749 123.936 148.697 124.5 148.582 121.048C148.467 117.596 146.41 113.202 139.79 113.412L145.749 123.936Z" fill="#FABBB8"/>
<path d="M110.442 39.4068C110.442 39.4068 118.833 40.3259 122.482 55.4736C126.13 70.6213 126.667 85.6057 126.667 85.6057L143.385 113.08L132.961 122.804L117.76 98.3853L118.331 54.4593L110.442 39.4068Z" fill="#F9C162"/>
<path d="M110.442 39.4068C110.442 39.4068 116.809 52.7774 115.521 68.6822C114.232 84.5871 114.407 102.761 119.454 111.936L119.28 76.1758C119.28 76.1758 122.462 63.7883 118.332 54.4593C118.332 54.4593 117.613 43.3674 110.442 39.4068Z" fill="#F9C162"/>
<path d="M118.332 54.4594C118.332 54.4594 122.459 63.0567 119.28 76.1759L119.478 101.145" stroke="#DD577A" stroke-width="0.7105" stroke-miterlimit="10" stroke-linecap="round" stroke-linejoin="round"/>
<path d="M93.7416 19.3326C93.7416 19.3326 88.9926 15.4032 84.7309 22.2661C80.4691 29.1289 82.5247 28.4414 74.9473 25.9639C67.3699 23.4864 59.1347 22.8684 55.4568 31.6263L63.0953 41.7977C63.0953 41.7977 67.8699 35.7787 74.6717 39.5702C81.4735 43.3618 91.2443 41.1229 91.8054 33.5356C92.3651 25.9454 93.7416 19.3326 93.7416 19.3326Z" fill="#65361A"/>
<path d="M106.747 0.457208C106.747 0.457208 128.005 -1.50746 115.006 17.4488L106.747 0.457208Z" fill="#65361A"/>
<path d="M113.401 2.09371C113.401 2.09371 93.8383 -5.04189 87.0436 7.03309C83.0319 14.1616 88.4585 27.0207 97.7548 30.3392C106.609 33.5 103.154 5.11956 103.154 5.11956L113.401 2.09371Z" fill="#65361A"/>
<path d="M110.739 19.4248C110.621 21.7816 112.437 23.7875 114.795 23.9054C117.152 24.0233 119.157 22.2078 119.275 19.8496C119.393 17.4929 117.578 15.487 115.22 15.3691C112.861 15.2512 110.856 17.0681 110.739 19.4248Z" fill="#F0A7A4"/>
<path d="M109.229 31.4246L108.821 40.7294C108.685 43.9968 106.598 45.6603 103.383 45.4997C100.639 45.3634 98.1313 43.8178 97.9267 41.0775L99.2734 26.4667L109.229 31.4246Z" fill="#FABBB8"/>
<path d="M108.949 38.1454C101.914 37.2319 98.1128 28.4371 98.1128 28.4371L109.291 30.4728L108.949 38.1454Z" fill="#F0A7A4"/>
<path d="M106.432 32.9815C111.922 32.8892 116.37 28.4769 116.445 23.9907L116.561 13.4059C116.656 7.78319 112.273 3.0981 106.656 2.81967C100.907 2.53271 95.006 6.91238 94.719 12.6615V21.1765C94.7204 27.7609 99.8544 32.6548 106.432 32.9815Z" fill="#FABBB8"/>
<path d="M101.33 12.4427L96.9778 19.8425L89.4174 11.3644L101.33 12.4427Z" fill="#65361A"/>
<path d="M89.5709 20.0655C89.453 22.4223 91.2685 24.4282 93.6266 24.5461C95.9834 24.664 97.9892 22.8485 98.1072 20.4903C98.2251 18.1335 96.4096 16.1277 94.0514 16.0098C91.6946 15.8919 89.6888 17.7088 89.5709 20.0655Z" fill="#FABBB8"/>
<path d="M95.2674 21.6211C95.2674 21.6211 95.4223 18.5271 92.439 18.8666" stroke="#1C0E0E" stroke-width="0.3654" stroke-miterlimit="10" stroke-linecap="round" stroke-linejoin="round"/>
<path d="M111.115 21.3129L111.787 23.1383L110.442 23.3216" stroke="#1C0E0E" stroke-width="0.3654" stroke-miterlimit="10" stroke-linecap="round" stroke-linejoin="round"/>
<path d="M104.78 14.9315C104.78 14.9315 106.997 14.5238 107.111 15.4614C107.111 15.4614 107.17 16.0978 105.233 16.4146C103.295 16.7314 102.774 16.6334 102.537 16.0524C102.301 15.4728 103.733 15.0395 104.78 14.9315Z" fill="black"/>
<path d="M114.151 14.2881C114.151 14.2881 112.287 14.271 112.222 15.1688C112.222 15.1688 112.192 15.7754 113.822 15.7527C115.45 15.73 115.955 15.4672 116.061 14.97C116.181 14.406 115.031 14.217 114.151 14.2881Z" fill="black"/>
<path d="M113.111 19.209C113.147 19.7459 113.596 20.1537 114.116 20.121C114.636 20.0883 115.028 19.6266 114.994 19.0896C114.958 18.5526 114.509 18.1449 113.989 18.1776C113.469 18.2103 113.076 18.672 113.111 19.209Z" fill="black"/>
<path d="M104.862 19.7289C104.898 20.2658 105.346 20.6735 105.866 20.6409C106.386 20.6082 106.778 20.1465 106.744 19.6095C106.709 19.0726 106.26 18.6648 105.74 18.6975C105.22 18.7302 104.828 19.1919 104.862 19.7289Z" fill="black"/>
<path d="M106.962 25.3586C106.962 25.3586 109.784 26.7949 112.073 25.3586" stroke="#1C0E0E" stroke-width="0.3654" stroke-miterlimit="10" stroke-linecap="round" stroke-linejoin="round"/>
<path d="M109.848 1.95593C109.848 1.95593 110.55 15.2029 97.9267 15.7186L89.4174 11.3659L95.3739 3.73593L101.33 2.80829L109.848 1.95593Z" fill="#65361A"/>
<path d="M93.7417 40.1811C93.7417 40.1811 101.927 37.8585 110.442 39.4069C110.442 39.4069 113.977 46.7627 107.111 47.9247C100.245 49.0854 93.7417 40.1811 93.7417 40.1811Z" fill="#FABBB8"/>
</svg>
