<svg width="197" height="223" viewBox="0 0 197 223" fill="none" xmlns="http://www.w3.org/2000/svg">
<path opacity="0.1" d="M93.2911 216.957C93.2911 220.117 77.5031 222.679 58.0281 222.679C38.5531 222.679 22.7651 220.117 22.7651 216.957C22.7651 213.797 38.5531 211.236 58.0281 211.236C77.5031 211.236 93.2911 213.797 93.2911 216.957Z" fill="#362A27"/>
<path d="M41.6712 207.773C41.6872 207.734 41.7062 207.696 41.7192 207.656C41.7192 207.656 49.2132 161.548 49.0822 151.725C48.9512 141.901 54.2032 107.078 53.1762 102.578C52.1502 98.078 36.8572 88.648 34.8072 102.73C30.9912 128.94 34.6882 159.924 34.6882 159.924C28.7182 169.326 31.9242 210.323 31.9242 210.323C31.9542 213.996 32.2582 216.338 32.8232 216.454C39.3112 217.604 59.2502 219.609 60.5752 216.32C61.8612 213.128 42.8082 208.072 41.6712 207.773Z" fill="#E79E63"/>
<mask id="mask0_18_306" style="mask-type:luminance" maskUnits="userSpaceOnUse" x="31" y="95" width="30" height="124">
<path d="M41.6712 207.773C41.6872 207.734 41.7062 207.696 41.7192 207.656C41.7192 207.656 49.2132 161.548 49.0822 151.725C48.9512 141.901 54.2032 107.078 53.1762 102.578C52.1502 98.078 36.8572 88.648 34.8072 102.73C30.9912 128.94 34.6882 159.924 34.6882 159.924C28.7182 169.326 31.9242 210.323 31.9242 210.323C31.9542 213.996 32.2582 216.338 32.8232 216.454C39.3112 217.604 59.2502 219.609 60.5752 216.32C61.8612 213.128 42.8082 208.072 41.6712 207.773Z" fill="white"/>
</mask>
<g mask="url(#mask0_18_306)">
<path opacity="0.7" d="M50.3942 153.545C50.3352 149.138 57.9252 99.892 58.9462 90.548C52.3092 90.323 38.4792 98.439 31.4922 95.416C31.4572 106.489 32.0332 147.646 32.5592 154.367C36.4672 155.953 42.1922 157.168 50.2982 156.626C50.3712 155.407 50.4052 154.368 50.3942 153.545Z" fill="#E79E63"/>
</g>
<path d="M50.6242 210.47C49.8092 212.656 50.5912 214.682 50.5912 214.682C45.1712 215.998 36.3772 214.504 32.0552 213.609C32.1972 215.343 32.4552 216.378 32.8242 216.454C39.3122 217.604 59.2512 219.609 60.5762 216.32C61.2822 214.566 55.8522 212.251 50.6242 210.47Z" fill="#F1CB4B"/>
<path d="M43.377 158.261C43.377 158.261 44.827 160.407 47.668 160.407" stroke="black" stroke-width="0.25" stroke-miterlimit="10" stroke-linecap="round" stroke-linejoin="round"/>
<path d="M71.3392 201.401C71.3392 201.401 88.1332 157.712 85.4262 148.268C82.7192 138.823 66.0952 106.279 63.3042 102.602C60.5142 98.925 45.9652 103.837 49.4122 117.644C52.8592 131.451 70.6792 154.606 70.6792 154.606C64.0142 163.036 59.9292 206.965 60.4372 207.237C66.3302 210.184 84.8762 217.775 87.0822 214.998C89.2882 212.221 71.3392 201.401 71.3392 201.401Z" fill="#E79E63"/>
<mask id="mask1_18_306" style="mask-type:luminance" maskUnits="userSpaceOnUse" x="48" y="101" width="40" height="115">
<path d="M71.3392 201.401C71.3392 201.401 88.1332 157.712 85.4262 148.268C82.7192 138.823 66.0952 106.279 63.3042 102.602C60.5142 98.925 45.9652 103.837 49.4122 117.644C52.8592 131.451 70.6792 154.606 70.6792 154.606C64.0142 163.036 59.9292 206.965 60.4372 207.237C66.3302 210.184 84.8762 217.775 87.0822 214.998C89.2882 212.221 71.3392 201.401 71.3392 201.401Z" fill="white"/>
</mask>
<g mask="url(#mask1_18_306)">
<path opacity="0.7" d="M84.3042 144.999C82.6492 140.662 69.0762 97.311 65.9932 90.923C63.0362 92.129 42.6562 105.167 32.8662 105.757C38.3392 115.4 68.4162 151.606 70.2262 154.008C75.3742 153.029 80.7352 150.549 84.3042 144.999Z" fill="#E79E63"/>
</g>
<path d="M79.2042 206.561C77.8012 208.424 77.9752 210.59 77.9752 210.59C72.4052 210.311 64.3982 206.378 60.5092 204.291C60.1532 205.994 60.1052 207.059 60.4382 207.237C66.3312 210.184 84.8772 217.775 87.0832 214.998C88.2582 213.518 83.7102 209.755 79.2042 206.561Z" fill="#F1CB4B"/>
<path d="M80.2651 151.34C80.2651 151.34 81.7151 153.486 84.5561 153.486" stroke="black" stroke-width="0.25" stroke-miterlimit="10" stroke-linecap="round" stroke-linejoin="round"/>
<path d="M67.8424 57.882C66.4694 54.645 59.8114 53.071 52.4724 53.169C45.2654 53.146 37.8824 53.739 35.3774 56.876C32.8724 60.013 37.6184 86.913 38.7364 90.854C38.7364 90.854 32.4534 101.67 35.0224 112.148C37.5924 122.626 66.0294 120.669 66.7484 111.111C67.2984 103.798 63.6244 90.575 63.6244 90.575C63.6244 90.575 69.2154 61.119 67.8424 57.882Z" fill="#E79E63"/>
<path d="M55.0942 64.777C55.0942 64.777 78.8032 80.408 82.4152 82.666C86.0272 84.925 101.333 83.217 118.234 72.528C118.234 72.528 131.816 76.521 137.695 72.786C142.077 70.003 125.836 65.197 125.836 65.197C125.836 65.197 131.736 60.418 128.929 60.374C126.176 60.331 119.418 62.813 117.46 67.137C117.46 67.137 94.2022 69.4 88.6152 75.712C88.6152 75.712 70.8982 57.033 62.9882 54.455C58.9752 53.147 55.7642 59.554 55.0942 64.777Z" fill="#E79E63"/>
<path d="M128.606 73.153C128.596 73.153 128.586 73.152 128.576 73.149C128.518 73.132 128.484 73.072 128.501 73.014C129.283 70.289 128.727 67.514 128.721 67.486C128.709 67.427 128.747 67.369 128.806 67.357C128.865 67.344 128.923 67.383 128.935 67.442C128.941 67.47 129.508 70.298 128.711 73.074C128.697 73.122 128.653 73.153 128.606 73.153Z" fill="black"/>
<path d="M137.765 70.741C137.749 70.741 137.733 70.738 137.717 70.73C137.677 70.711 133.651 68.795 128.956 68.539C128.896 68.536 128.85 68.484 128.853 68.424C128.856 68.364 128.912 68.316 128.968 68.321C133.708 68.579 137.771 70.514 137.812 70.533C137.866 70.559 137.889 70.624 137.863 70.679C137.845 70.718 137.806 70.741 137.765 70.741Z" fill="black"/>
<path d="M138.046 72.473C138.031 72.473 138.015 72.47 138 72.463C137.958 72.444 133.716 70.522 129.02 70.267C128.96 70.264 128.913 70.212 128.917 70.152C128.92 70.092 128.971 70.046 129.032 70.049C133.771 70.307 138.048 72.245 138.091 72.265C138.146 72.29 138.17 72.355 138.145 72.41C138.127 72.45 138.087 72.473 138.046 72.473Z" fill="black"/>
<path d="M136.069 73.553C136.056 73.553 136.043 73.551 136.03 73.546C133.678 72.646 131.29 72.124 128.93 71.996C128.87 71.993 128.823 71.941 128.827 71.881C128.83 71.821 128.886 71.776 128.942 71.778C131.324 71.908 133.735 72.434 136.108 73.343C136.164 73.364 136.193 73.428 136.171 73.484C136.154 73.527 136.113 73.553 136.069 73.553Z" fill="black"/>
<path d="M122.832 69.173C122.793 69.173 122.756 69.152 122.736 69.116C122.707 69.063 122.727 68.997 122.78 68.968C122.805 68.954 125.317 67.565 125.729 65.18C125.739 65.121 125.793 65.08 125.855 65.091C125.915 65.101 125.954 65.158 125.944 65.217C125.514 67.708 122.991 69.102 122.884 69.16C122.867 69.169 122.849 69.173 122.832 69.173Z" fill="black"/>
<path d="M37.4003 55.339C27.8263 57.775 16.5923 82.929 14.8473 86.82C13.0743 90.806 11.4823 99.661 12.1473 118.211C12.1473 118.211 2.19626 120.115 0.198261 126.788C-1.29074 131.761 13.1893 125.909 13.1893 125.909C13.1893 125.909 12.8023 132.232 14.9523 130.427C17.0613 128.657 18.7203 118.459 18.7203 118.459C18.7203 118.459 24.1653 98.956 24.1173 89.774C24.1173 89.774 35.0233 75.47 39.9733 68.67C41.0663 67.168 44.9873 53.408 37.4003 55.339Z" fill="#E79E63"/>
<path d="M0.435056 126.606C0.407056 126.606 0.378057 126.595 0.357057 126.573C0.315057 126.53 0.316056 126.461 0.359056 126.418C0.391056 126.387 3.62806 123.26 8.03906 121.506C8.09506 121.484 8.15806 121.511 8.18106 121.567C8.20305 121.623 8.17606 121.687 8.12006 121.709C3.74906 123.446 0.544056 126.543 0.512056 126.574C0.490056 126.596 0.462056 126.606 0.435056 126.606Z" fill="black"/>
<path d="M0.719294 128.338C0.690294 128.338 0.661292 128.326 0.639292 128.303C0.598292 128.259 0.600293 128.19 0.644293 128.148C0.678293 128.116 4.11629 124.917 8.52729 123.164C8.58329 123.142 8.64729 123.169 8.66929 123.225C8.69129 123.281 8.66429 123.345 8.60829 123.367C4.23629 125.105 0.828294 128.275 0.794294 128.307C0.773294 128.328 0.746294 128.338 0.719294 128.338Z" fill="black"/>
<path d="M2.93699 128.732C2.90599 128.732 2.87399 128.718 2.85299 128.692C2.81499 128.645 2.82099 128.576 2.86799 128.538C4.82899 126.921 6.94699 125.655 9.16299 124.774C9.21899 124.752 9.28299 124.779 9.30499 124.835C9.32699 124.891 9.29998 124.955 9.24398 124.977C7.04898 125.85 4.94999 127.104 3.00699 128.706C2.98599 128.724 2.96099 128.732 2.93699 128.732Z" fill="black"/>
<path d="M58.5309 7.36302C63.7859 15.309 61.0209 26.398 52.3529 32.13C43.6859 37.862 32.3989 36.067 27.1439 28.121C21.8889 20.175 24.6549 9.08602 33.3219 3.35402C41.9889 -2.37798 53.2749 -0.582976 58.5309 7.36302Z" fill="#DFB740"/>
<path d="M78.4431 10.52C82.7371 19.537 72.0051 31.019 54.0611 39.564C36.1181 48.109 18.9501 50.538 14.6561 41.521C10.3621 32.504 20.5681 15.456 38.5111 6.91103C56.4551 -1.63397 74.1491 1.50303 78.4431 10.52Z" fill="#F1CB4B"/>
<path d="M47.531 48.928C47.531 48.928 42.352 54.884 35.118 52.644C35.118 52.644 36.5741 51.356 36.5311 48.549C36.5311 48.549 35.111 51.634 31.565 50.27C31.565 50.27 33.777 48.846 33.035 45.005C32.293 41.165 25.5381 33.097 26.6521 24.653C27.7661 16.209 35.4161 14.967 35.4161 14.967C35.4161 14.967 41.144 5.95802 52.813 6.86302C64.483 7.76802 69.5031 15.278 69.673 22.134C69.8441 28.99 61.7511 35.112 61.7511 35.112L47.531 48.928Z" fill="#363330"/>
<path d="M56.0367 49.313C56.0367 49.313 64.5387 48.7341 66.7137 40.952C69.0797 32.496 68.9597 19.63 62.8897 14.025C56.8237 8.42005 35.7567 7.18705 33.3527 22.5471C31.1727 36.445 36.4637 45.2891 46.1907 49.5051V55.887C46.1907 55.887 49.9497 61.318 56.1117 56.638L56.0367 49.313Z" fill="#E79E63"/>
<mask id="mask2_18_306" style="mask-type:luminance" maskUnits="userSpaceOnUse" x="32" y="10" width="37" height="49">
<path d="M56.0367 49.313C56.0367 49.313 64.5387 48.7341 66.7137 40.952C69.0797 32.496 68.9597 19.63 62.8897 14.025C56.8237 8.42005 35.7567 7.18705 33.3527 22.5471C31.1727 36.445 36.4637 45.2891 46.1907 49.5051V55.887C46.1907 55.887 49.9497 61.318 56.1117 56.638L56.0367 49.313Z" fill="white"/>
</mask>
<g mask="url(#mask2_18_306)">
<path d="M46.9217 40.439C48.2626 40.439 49.3497 39.352 49.3497 38.011C49.3497 36.6701 48.2626 35.583 46.9217 35.583C45.5807 35.583 44.4937 36.6701 44.4937 38.011C44.4937 39.352 45.5807 40.439 46.9217 40.439Z" fill="#DA8459"/>
</g>
<mask id="mask3_18_306" style="mask-type:luminance" maskUnits="userSpaceOnUse" x="32" y="10" width="37" height="49">
<path d="M56.0367 49.313C56.0367 49.313 64.5387 48.7341 66.7137 40.952C69.0797 32.496 68.9597 19.63 62.8897 14.025C56.8237 8.42005 35.7567 7.18705 33.3527 22.5471C31.1727 36.445 36.4637 45.2891 46.1907 49.5051V55.887C46.1907 55.887 49.9497 61.318 56.1117 56.638L56.0367 49.313Z" fill="white"/>
</mask>
<g mask="url(#mask3_18_306)">
<path d="M66.4978 39.91C67.8388 39.91 68.9258 38.823 68.9258 37.482C68.9258 36.1411 67.8388 35.054 66.4978 35.054C65.1569 35.054 64.0698 36.1411 64.0698 37.482C64.0698 38.823 65.1569 39.91 66.4978 39.91Z" fill="#DA8459"/>
</g>
<path d="M40.5317 37.5911C40.4717 37.5911 40.4227 37.5421 40.4227 37.4821C40.4227 35.1491 39.0107 31.9461 36.9077 30.8971C36.8537 30.8701 36.8317 30.8051 36.8587 30.7501C36.8857 30.6961 36.9517 30.6741 37.0057 30.7011C39.1807 31.7861 40.6417 35.0831 40.6417 37.4811C40.6407 37.5421 40.5917 37.5911 40.5317 37.5911Z" fill="black"/>
<path d="M32.8169 22.021C35.1269 7.26404 54.2389 7.68204 61.5759 12.604C57.8009 17.717 44.3649 21.403 44.3649 21.403C44.3649 21.403 42.7249 31.893 41.4539 32.454C41.4539 32.454 39.5299 27.485 36.1589 28.518C32.7829 29.551 33.3919 39.527 39.6709 41.588L46.1899 49.506C35.1029 45.794 30.6009 36.151 32.8169 22.021Z" fill="#363330"/>
<path d="M55.8678 44.1021C54.3378 44.1021 53.1998 43.3061 53.1438 43.2671C53.0948 43.2321 53.0828 43.1641 53.1178 43.1141C53.1528 43.0651 53.2218 43.0531 53.2698 43.0881C53.2848 43.0991 54.8068 44.1591 56.6348 43.8101C56.6938 43.7981 56.7518 43.8381 56.7628 43.8971C56.7738 43.9561 56.7358 44.0141 56.6758 44.0251C56.3988 44.0791 56.1278 44.1021 55.8678 44.1021Z" fill="black"/>
<path d="M60.8188 40.0541C60.8188 40.0541 54.8068 41.1681 51.1538 38.1201C51.1538 38.1201 51.5108 42.0581 54.9438 42.7721C59.7018 43.7621 60.8188 40.0541 60.8188 40.0541Z" fill="#3C2215"/>
<mask id="mask4_18_306" style="mask-type:luminance" maskUnits="userSpaceOnUse" x="51" y="38" width="10" height="5">
<path d="M60.8188 40.0541C60.8188 40.0541 54.8068 41.1681 51.1538 38.1201C51.1538 38.1201 51.5108 42.0581 54.9438 42.7721C59.7018 43.7621 60.8188 40.0541 60.8188 40.0541Z" fill="white"/>
</mask>
<g mask="url(#mask4_18_306)">
<path d="M50.771 38.8181C52.521 39.6391 54.541 39.7731 56.392 39.6181C57.113 40.2691 58.209 41.8001 58.077 43.0271C57.479 43.1831 56.323 43.2931 55.635 43.2421C51.578 42.9411 50.771 38.8181 50.771 38.8181Z" fill="#D27560"/>
</g>
<mask id="mask5_18_306" style="mask-type:luminance" maskUnits="userSpaceOnUse" x="51" y="38" width="10" height="5">
<path d="M60.8188 40.0541C60.8188 40.0541 54.8068 41.1681 51.1538 38.1201C51.1538 38.1201 51.5108 42.0581 54.9438 42.7721C59.7018 43.7621 60.8188 40.0541 60.8188 40.0541Z" fill="white"/>
</mask>
<g mask="url(#mask5_18_306)">
<path d="M50.6909 38.9921C50.6909 38.9921 51.8299 40.2081 53.9339 40.8621C56.2349 41.5771 59.6109 41.8331 60.4619 39.9721L50.8379 37.2931L50.6909 38.9921Z" fill="white"/>
</g>
<path d="M65.6168 26.216C65.3238 27.136 63.9738 26.29 62.4338 25.799C60.8948 25.308 59.4098 24.885 59.7028 23.965C59.9958 23.045 61.4378 22.788 62.9618 23.337C64.7338 23.977 65.9108 25.297 65.6168 26.216Z" fill="#363330"/>
<path d="M47.5661 26.1951C47.8271 27.1251 49.2061 26.3261 50.7611 25.8901C52.3161 25.4541 53.8151 25.0831 53.5551 24.1531C53.2941 23.2241 51.8631 22.9161 50.3201 23.4111C48.5281 23.9881 47.3061 25.2661 47.5661 26.1951Z" fill="#363330"/>
<path d="M57.9357 29.3361C57.0867 29.2811 56.6347 30.3661 56.5167 31.3491C56.4217 32.1471 56.1787 33.9841 56.4767 35.6531C56.8427 37.7031 58.5697 38.8911 59.7007 38.7671C60.8317 38.6431 61.7827 36.8811 61.5097 36.2461C61.2367 35.6121 59.7777 35.1851 59.7777 35.1851C59.7777 35.1851 59.1997 31.9881 59.0977 31.2641C58.9967 30.5411 58.7837 29.3911 57.9357 29.3361Z" fill="#CC7F43"/>
<path d="M53.3478 34.25C53.3208 34.25 53.2938 34.24 53.2718 34.22C50.5298 31.6 46.9598 32.228 46.9238 32.235C46.8668 32.247 46.8078 32.207 46.7958 32.148C46.7848 32.089 46.8238 32.031 46.8838 32.02C46.9198 32.013 50.5998 31.365 53.4228 34.062C53.4668 34.104 53.4678 34.173 53.4268 34.217C53.4048 34.239 53.3758 34.25 53.3478 34.25Z" fill="black"/>
<path d="M53.2822 33.154C53.2472 33.154 53.2122 33.137 53.1912 33.105C52.3412 31.836 51.1102 31.589 51.0972 31.587C51.0382 31.576 50.9992 31.518 51.0102 31.459C51.0212 31.4 51.0762 31.359 51.1382 31.372C51.1922 31.382 52.4722 31.639 53.3732 32.984C53.4072 33.034 53.3932 33.102 53.3432 33.136C53.3242 33.148 53.3032 33.154 53.2822 33.154Z" fill="black"/>
<path d="M47.4279 32.178C47.4189 32.178 47.4089 32.177 47.3999 32.174C46.2989 31.881 46.1869 30.639 46.1859 30.627C46.1809 30.567 46.2259 30.514 46.2859 30.509C46.3449 30.504 46.3989 30.549 46.4039 30.609C46.4079 30.654 46.5059 31.71 47.4559 31.963C47.5139 31.979 47.5489 32.038 47.5329 32.097C47.5209 32.146 47.4769 32.178 47.4279 32.178Z" fill="black"/>
<path d="M60.22 34.2501C60.194 34.2501 60.168 34.2411 60.148 34.2231C60.103 34.1831 60.098 34.1141 60.138 34.0691C62.531 31.3631 65.655 32.0141 65.686 32.0211C65.745 32.0341 65.782 32.0921 65.769 32.1511C65.756 32.2101 65.698 32.2481 65.639 32.2341C65.609 32.2271 62.607 31.6061 60.302 34.2131C60.28 34.2371 60.25 34.2501 60.22 34.2501Z" fill="black"/>
<path d="M60.275 33.1541C60.257 33.1541 60.238 33.1491 60.221 33.1401C60.168 33.1101 60.15 33.0441 60.18 32.9911C60.943 31.6421 62.033 31.3831 62.079 31.3731C62.136 31.3591 62.196 31.3971 62.209 31.4551C62.222 31.5141 62.185 31.5721 62.127 31.5861C62.117 31.5881 61.083 31.8381 60.37 33.0981C60.35 33.1341 60.313 33.1541 60.275 33.1541Z" fill="black"/>
<path d="M65.1288 32.178C65.0908 32.178 65.0538 32.158 65.0338 32.122C65.0038 32.07 65.0228 32.003 65.0748 31.973C65.0818 31.969 65.7648 31.5721 65.8838 30.6741C65.8918 30.6141 65.9468 30.571 66.0068 30.58C66.0668 30.588 66.1088 30.6431 66.1008 30.7031C65.9658 31.7131 65.2138 32.146 65.1818 32.164C65.1648 32.174 65.1468 32.178 65.1288 32.178Z" fill="black"/>
<path opacity="0.7" d="M56.0371 49.3131C56.0371 49.3131 52.2401 49.6431 48.9951 48.2791C48.9951 48.2791 51.7371 53.5061 56.0371 52.4051V49.3131Z" fill="#E79E63"/>
<path d="M37.6954 55.053C40.9974 55.786 52.6684 61.512 65.7764 55.695C67.3034 55.017 79.8744 67.079 79.8744 67.079C79.8744 67.079 74.1494 74.996 67.2494 77.477C67.2494 77.477 64.6774 89.176 64.3634 89.098C64.0494 89.02 51.8454 87.407 38.4514 89.705L35.3964 76.611C35.3964 76.611 33.8634 72.817 24.5294 68.298C23.7364 67.914 32.8654 53.981 37.6954 55.053Z" fill="#6B9466"/>
<path d="M40.5323 54.178C40.5323 54.178 39.6123 76.08 34.4053 81.012L36.9563 90.924C36.9563 90.924 27.5033 105.102 20.2183 146.18C20.2183 146.18 27.7093 144.006 41.9223 148.351C56.1353 152.696 76.7263 153.032 87.2703 139.141C87.2703 139.141 71.2743 115.897 65.9923 90.925C65.9923 90.925 70.3783 70.746 64.9523 55.23C64.9523 55.23 64.4973 54.826 63.5103 54.466C62.5223 54.106 61.6373 54.065 61.6373 54.065C61.6373 54.065 65.6253 66.513 62.1163 70.462C58.6073 74.411 45.7403 73.352 44.9143 65.763C44.0883 58.173 43.9653 53.575 43.9653 53.575C43.9653 53.575 43.1633 53.558 42.2113 53.707C41.2593 53.853 40.5323 54.178 40.5323 54.178Z" fill="#7CCEB9"/>
<path d="M48.0424 83.638C46.2844 83.638 44.9864 83.288 44.9564 83.28C44.8984 83.264 44.8644 83.203 44.8804 83.145C44.8964 83.087 44.9584 83.054 45.0154 83.069C45.0804 83.087 51.6014 84.84 55.1814 80.339C55.2194 80.292 55.2874 80.284 55.3354 80.321C55.3824 80.359 55.3904 80.427 55.3534 80.475C53.2924 83.065 50.2914 83.638 48.0424 83.638Z" fill="black"/>
<path d="M72.3805 133.68C72.3785 133.68 72.3765 133.68 72.3745 133.68C62.8015 133.154 56.7795 127.687 53.4135 123.192C49.7695 118.326 48.3685 113.52 48.3545 113.472C48.3375 113.414 48.3715 113.353 48.4295 113.337C48.4875 113.32 48.5475 113.354 48.5645 113.412C48.5785 113.46 49.9715 118.233 53.5925 123.067C56.9305 127.522 62.8995 132.941 72.3855 133.462C72.4455 133.465 72.4925 133.517 72.4885 133.577C72.4865 133.635 72.4385 133.68 72.3805 133.68Z" fill="black"/>
<path opacity="0.1" d="M173.176 216.957C173.176 220.117 157.843 222.679 138.929 222.679C120.014 222.679 104.681 220.117 104.681 216.957C104.681 213.797 120.014 211.236 138.929 211.236C157.843 211.236 173.176 213.797 173.176 216.957Z" fill="#362A27"/>
<path d="M116.154 14.742C116.154 14.742 110.079 14.109 106.83 21.522C103.581 28.936 114.589 53.808 128.006 50.196L145.632 30.773C145.632 30.773 154.534 28.936 153.751 19.305C153.751 19.305 151.224 21.142 147.675 20.002C147.675 20.002 153.811 16.897 154.294 9.16702C154.294 9.16702 149.058 11.005 142.743 8.28002C136.425 5.55402 119.281 3.46302 116.154 14.742Z" fill="#503C2A"/>
<path d="M137.001 58.816C137.001 58.816 150.371 91.128 156.817 89.477C163.262 87.826 169.262 78.177 177.263 65.275C177.263 65.275 191.373 66.427 196.372 61.577C200.097 57.962 183.219 56.553 183.219 56.553C183.219 56.553 188.026 50.676 185.268 51.203C182.563 51.72 176.45 55.522 175.411 60.153C175.411 60.153 164.941 68.855 158.662 76.817C158.662 76.817 153.142 62.073 146.903 56.589C143.733 53.802 140.33 54.736 137.001 58.816Z" fill="#B6754A"/>
<path d="M187.523 63.783C187.52 63.783 187.518 63.783 187.515 63.783C187.455 63.778 187.41 63.726 187.414 63.666C187.626 60.839 186.519 58.235 186.507 58.209C186.483 58.154 186.509 58.089 186.564 58.065C186.619 58.041 186.684 58.066 186.708 58.122C186.719 58.148 187.848 60.802 187.632 63.682C187.628 63.74 187.58 63.783 187.523 63.783Z" fill="black"/>
<path d="M196.001 59.562C195.992 59.562 195.983 59.561 195.974 59.559C195.931 59.548 191.601 58.489 186.951 59.192C186.893 59.202 186.836 59.16 186.827 59.1C186.818 59.04 186.859 58.984 186.919 58.976C191.612 58.266 195.984 59.336 196.027 59.347C196.086 59.362 196.121 59.421 196.107 59.48C196.095 59.529 196.05 59.562 196.001 59.562Z" fill="black"/>
<path d="M196.629 61.201C196.621 61.201 196.613 61.2 196.604 61.198C196.559 61.188 192.016 60.168 187.365 60.87C187.305 60.879 187.25 60.838 187.241 60.778C187.232 60.718 187.273 60.663 187.333 60.654C192.026 59.945 196.607 60.974 196.653 60.985C196.712 60.999 196.749 61.057 196.735 61.116C196.724 61.167 196.678 61.201 196.629 61.201Z" fill="black"/>
<path d="M194.912 62.66C194.906 62.66 194.9 62.66 194.894 62.658C192.409 62.254 189.964 62.228 187.628 62.581C187.57 62.59 187.512 62.549 187.504 62.489C187.495 62.429 187.536 62.373 187.596 62.364C189.955 62.007 192.422 62.033 194.93 62.441C194.989 62.451 195.03 62.507 195.02 62.566C195.011 62.622 194.965 62.66 194.912 62.66Z" fill="black"/>
<path d="M181.062 61.058C181.031 61.058 181 61.045 180.979 61.019C180.94 60.973 180.946 60.904 180.992 60.865C181.014 60.846 183.191 58.976 183.11 56.557C183.108 56.497 183.155 56.446 183.216 56.444C183.284 56.444 183.327 56.489 183.329 56.55C183.414 59.076 181.226 60.954 181.133 61.032C181.112 61.05 181.087 61.058 181.062 61.058Z" fill="black"/>
<path d="M147.757 57.882C146.384 54.645 139.726 53.071 132.387 53.169C125.18 53.146 117.797 53.739 115.292 56.876C112.787 60.013 117.533 86.913 118.651 90.854C118.651 90.854 112.368 101.67 114.937 112.148C117.506 122.626 145.944 120.669 146.663 111.111C147.213 103.798 143.539 90.575 143.539 90.575C143.539 90.575 149.13 61.119 147.757 57.882Z" fill="#B6754A"/>
<mask id="mask6_18_306" style="mask-type:luminance" maskUnits="userSpaceOnUse" x="114" y="53" width="34" height="67">
<path d="M147.757 57.882C146.384 54.645 139.726 53.071 132.387 53.169C125.18 53.146 117.797 53.739 115.292 56.876C112.787 60.013 117.533 86.913 118.651 90.854C118.651 90.854 112.368 101.67 114.937 112.148C117.506 122.626 145.944 120.669 146.663 111.111C147.213 103.798 143.539 90.575 143.539 90.575C143.539 90.575 149.13 61.119 147.757 57.882Z" fill="white"/>
</mask>
<g mask="url(#mask6_18_306)">
<path d="M113.379 112.485C116.206 124.01 147.487 121.859 148.278 111.345C148.63 106.663 147.409 99.781 146.326 94.844C134.646 100.033 121.189 96.562 115.047 94.435C113.381 98.977 111.738 105.791 113.379 112.485Z" fill="#7CCEB9"/>
</g>
<path d="M151.255 201.401C151.255 201.401 168.049 157.712 165.342 148.268C162.635 138.823 146.011 106.279 143.22 102.602C140.43 98.925 125.881 103.837 129.328 117.644C132.775 131.451 150.595 154.606 150.595 154.606C143.687 163.342 140.422 190.552 141.318 202.411C141.287 201.997 141.259 201.561 141.234 201.104C141.252 201.105 149.004 205.828 151.255 201.401Z" fill="#7CCEB9"/>
<path d="M151.255 201.401C149.22 204.304 141.251 201.11 141.235 201.104C140.22 204.634 139.845 206.966 140.354 207.237C146.247 210.184 164.793 217.775 166.999 214.998C169.203 212.221 151.255 201.401 151.255 201.401Z" fill="#E5903D"/>
<path d="M159.12 206.561C157.717 208.424 157.891 210.59 157.891 210.59C152.321 210.311 144.314 206.378 140.425 204.291C140.069 205.994 140.021 207.059 140.354 207.237C146.247 210.184 164.793 217.775 166.999 214.998C168.173 213.518 163.625 209.755 159.12 206.561Z" fill="#FAF0E8"/>
<path d="M143.895 198.41C143.835 198.41 143.786 198.362 143.786 198.302C143.521 174.595 152.906 156.082 153.525 154.888C144.087 141.421 135.153 122.75 135.064 122.563C135.038 122.508 135.061 122.443 135.116 122.417C135.17 122.392 135.236 122.414 135.262 122.469C135.351 122.656 144.301 141.362 153.743 154.817C153.767 154.851 153.77 154.895 153.75 154.932C153.65 155.119 143.734 173.967 144.005 198.3C144.005 198.36 143.957 198.41 143.897 198.411C143.895 198.41 143.895 198.41 143.895 198.41Z" fill="black"/>
<path d="M148.853 199.289C144.746 199.289 141.102 197.206 141.056 197.178C141.004 197.148 140.985 197.081 141.015 197.029C141.045 196.976 141.113 196.959 141.166 196.989C141.225 197.023 147.094 200.377 152.272 198.501C152.329 198.479 152.391 198.51 152.412 198.566C152.432 198.623 152.402 198.686 152.345 198.706C151.19 199.125 150.004 199.289 148.853 199.289Z" fill="black"/>
<path d="M131.638 123.879C131.591 123.879 131.547 123.848 131.533 123.801C131.516 123.743 131.549 123.682 131.606 123.665C136.924 122.081 140.456 119.636 140.491 119.612C140.541 119.577 140.609 119.589 140.643 119.639C140.677 119.689 140.665 119.757 140.616 119.791C140.581 119.815 137.023 122.279 131.669 123.874C131.659 123.877 131.648 123.879 131.638 123.879Z" fill="black"/>
<path d="M133.352 123.32C133.344 123.32 133.336 123.319 133.328 123.317C133.269 123.304 133.232 123.246 133.245 123.187C135.953 111.001 133.599 97.819 133.574 97.687C133.563 97.627 133.603 97.571 133.662 97.56C133.723 97.55 133.779 97.589 133.789 97.648C133.813 97.78 136.175 111.005 133.458 123.235C133.447 123.286 133.402 123.32 133.352 123.32Z" fill="black"/>
<path d="M136.246 122.194C136.234 122.194 136.222 122.192 136.211 122.188C136.154 122.168 136.123 122.106 136.143 122.049C139.421 112.41 137.187 97.446 137.163 97.296C137.154 97.236 137.195 97.18 137.255 97.171C137.315 97.162 137.371 97.203 137.38 97.263C137.403 97.414 139.646 112.43 136.351 122.119C136.334 122.165 136.292 122.194 136.246 122.194Z" fill="black"/>
<path d="M117.273 55.32C107.702 57.767 96.4964 82.934 94.7564 86.827C92.9884 90.814 92.2744 98.469 95.8074 118.604C95.8074 118.604 93.0164 131.744 98.1694 136.43C102.009 139.922 102.992 124.336 102.992 124.336C102.992 124.336 108.526 127.418 107.828 124.699C107.143 122.032 101.654 117.368 101.654 117.368C101.654 117.368 103.988 100.22 103.929 91.038C103.929 91.038 114.92 75.454 119.862 68.648C120.952 67.145 124.858 53.381 117.273 55.32Z" fill="#B6754A"/>
<path d="M98.0082 136.2C97.9622 136.2 97.9202 136.171 97.9042 136.126C97.8902 136.083 96.4682 131.813 96.7942 127.078C96.7982 127.018 96.8462 126.969 96.9112 126.976C96.9712 126.98 97.0171 127.032 97.0131 127.093C96.6901 131.784 98.0981 136.014 98.1121 136.057C98.1311 136.114 98.1011 136.176 98.0431 136.196C98.0311 136.199 98.0192 136.2 98.0082 136.2Z" fill="black"/>
<path d="M99.6924 136.692C99.6464 136.692 99.6034 136.662 99.5884 136.616C99.5744 136.571 98.1754 132.088 98.5014 127.354C98.5054 127.294 98.5494 127.246 98.6174 127.252C98.6774 127.256 98.7234 127.308 98.7194 127.369C98.3964 132.061 99.7824 136.506 99.7964 136.55C99.8144 136.608 99.7824 136.669 99.7254 136.687C99.7144 136.691 99.7034 136.692 99.6924 136.692Z" fill="black"/>
<path d="M101.007 134.863C100.958 134.863 100.913 134.83 100.901 134.78C100.291 132.314 100.064 129.856 100.228 127.477C100.232 127.417 100.282 127.368 100.345 127.375C100.405 127.379 100.451 127.431 100.447 127.492C100.285 129.849 100.509 132.284 101.114 134.728C101.128 134.787 101.093 134.846 101.034 134.86C101.024 134.862 101.015 134.863 101.007 134.863Z" fill="black"/>
<path d="M121.532 207.759C121.532 207.759 129.026 161.652 128.895 151.828C128.764 142.004 134.016 107.181 132.989 102.681C131.963 98.181 116.677 94.048 114.62 102.833C108.365 129.548 114.501 160.027 114.501 160.027C108.531 169.429 109.944 199.912 112.058 211.615C111.984 211.207 111.911 210.776 111.84 210.323C111.858 210.322 120.372 211.109 121.532 207.759Z" fill="#7CCEB9"/>
<path d="M121.532 207.759C120.406 211.121 111.858 210.324 111.841 210.323C111.871 213.996 112.175 216.338 112.74 216.454C119.228 217.604 139.167 219.609 140.492 216.32C141.816 213.03 121.532 207.759 121.532 207.759Z" fill="#E5903D"/>
<path d="M130.54 210.47C129.724 212.656 130.507 214.682 130.507 214.682C125.087 215.998 116.293 214.504 111.97 213.609C112.113 215.343 112.37 216.378 112.739 216.454C119.227 217.604 139.166 219.609 140.491 216.32C141.197 214.566 135.767 212.251 130.54 210.47Z" fill="#FAF0E8"/>
<path d="M114.108 206.697C114.053 206.697 114.006 206.656 113.999 206.6C111.252 182.706 117.234 160.784 117.459 159.974C112.534 120.142 120.555 96.292 120.637 96.056C120.657 95.999 120.721 95.969 120.776 95.988C120.833 96.008 120.863 96.07 120.844 96.127C120.763 96.363 112.755 120.178 117.679 159.969C117.681 159.983 117.68 159.998 117.676 160.012C117.613 160.233 111.437 182.393 114.217 206.575C114.224 206.635 114.181 206.689 114.121 206.696C114.116 206.697 114.112 206.697 114.108 206.697Z" fill="black"/>
<path d="M114.506 206.689C112.677 206.689 111.314 206.45 111.283 206.444C111.224 206.433 111.184 206.376 111.195 206.317C111.206 206.258 111.26 206.219 111.322 206.229C111.393 206.242 118.505 207.487 122.014 204.211C122.058 204.17 122.127 204.172 122.169 204.216C122.21 204.26 122.208 204.329 122.164 204.371C120.123 206.275 116.912 206.689 114.506 206.689Z" fill="black"/>
<path d="M117.14 114.344C117.129 114.344 117.121 114.344 117.121 114.344C117.061 114.343 117.013 114.292 117.014 114.232C117.015 114.172 117.069 114.123 117.126 114.125C117.161 114.124 120.4 114.169 123.215 111.379C126.122 108.498 127.548 103.755 127.454 97.281C127.453 97.221 127.501 97.171 127.562 97.17C127.619 97.169 127.672 97.217 127.673 97.278C127.768 103.817 126.319 108.615 123.365 111.538C120.595 114.281 117.416 114.344 117.14 114.344Z" fill="black"/>
<path d="M135.658 50.304C135.658 50.304 144.16 49.725 146.335 41.943C148.701 33.487 148.581 20.621 142.511 15.016C136.445 9.41101 115.378 8.17802 112.974 23.538C110.795 37.436 116.085 46.28 125.812 50.496V56.878C125.812 56.878 129.571 62.309 135.732 57.629L135.658 50.304Z" fill="#B6754A"/>
<mask id="mask7_18_306" style="mask-type:luminance" maskUnits="userSpaceOnUse" x="112" y="11" width="36" height="49">
<path d="M135.658 50.304C135.658 50.304 144.16 49.725 146.335 41.943C148.701 33.487 148.581 20.621 142.511 15.016C136.445 9.41101 115.378 8.17802 112.974 23.538C110.795 37.436 116.085 46.28 125.812 50.496V56.878C125.812 56.878 129.571 62.309 135.732 57.629L135.658 50.304Z" fill="white"/>
</mask>
<g mask="url(#mask7_18_306)">
<path d="M126.544 41.43C127.885 41.43 128.972 40.343 128.972 39.002C128.972 37.6611 127.885 36.574 126.544 36.574C125.203 36.574 124.116 37.6611 124.116 39.002C124.116 40.343 125.203 41.43 126.544 41.43Z" fill="#AE5C43"/>
</g>
<mask id="mask8_18_306" style="mask-type:luminance" maskUnits="userSpaceOnUse" x="112" y="11" width="36" height="49">
<path d="M135.658 50.304C135.658 50.304 144.16 49.725 146.335 41.943C148.701 33.487 148.581 20.621 142.511 15.016C136.445 9.41101 115.378 8.17802 112.974 23.538C110.795 37.436 116.085 46.28 125.812 50.496V56.878C125.812 56.878 129.571 62.309 135.732 57.629L135.658 50.304Z" fill="white"/>
</mask>
<g mask="url(#mask8_18_306)">
<path d="M143.691 38.472C143.691 39.813 144.778 40.9 146.119 40.9C147.46 40.9 148.547 39.813 148.547 38.472C148.547 37.131 147.46 36.044 146.119 36.044C144.778 36.044 143.691 37.131 143.691 38.472Z" fill="#AE5C43"/>
</g>
<path d="M126.218 33.851C125.26 31.513 126.054 29.029 127.993 28.303C129.931 27.577 132.28 28.883 133.238 31.221C134.196 33.559 133.402 36.043 131.462 36.769C129.526 37.496 127.177 36.189 126.218 33.851Z" fill="white"/>
<mask id="mask9_18_306" style="mask-type:luminance" maskUnits="userSpaceOnUse" x="125" y="28" width="9" height="9">
<path d="M126.218 33.851C125.26 31.513 126.054 29.029 127.993 28.303C129.931 27.577 132.28 28.883 133.238 31.221C134.196 33.559 133.402 36.043 131.462 36.769C129.526 37.496 127.177 36.189 126.218 33.851Z" fill="white"/>
</mask>
<g mask="url(#mask9_18_306)">
<path d="M125.13 32.646C125.168 34.723 126.67 36.381 128.485 36.347C130.3 36.314 131.74 34.602 131.701 32.525C131.663 30.447 130.161 28.79 128.346 28.824C126.532 28.857 125.092 30.568 125.13 32.646Z" fill="#6B9466"/>
</g>
<path d="M145.585 32.299C145.834 29.786 144.457 27.623 142.509 27.466C140.562 27.309 138.782 29.219 138.535 31.732C138.286 34.244 139.663 36.408 141.611 36.564C143.558 36.721 145.338 34.811 145.585 32.299Z" fill="white"/>
<mask id="mask10_18_306" style="mask-type:luminance" maskUnits="userSpaceOnUse" x="138" y="27" width="8" height="10">
<path d="M145.585 32.299C145.834 29.786 144.457 27.623 142.509 27.466C140.562 27.309 138.782 29.219 138.535 31.732C138.286 34.244 139.663 36.408 141.611 36.564C143.558 36.721 145.338 34.811 145.585 32.299Z" fill="white"/>
</mask>
<g mask="url(#mask10_18_306)">
<path d="M136.853 32.548C136.891 34.626 138.393 36.283 140.208 36.249C142.023 36.215 143.463 34.504 143.424 32.427C143.386 30.349 141.884 28.692 140.069 28.726C138.255 28.759 136.815 30.47 136.853 32.548Z" fill="#6B9466"/>
</g>
<path d="M120.153 38.581C120.093 38.581 120.044 38.532 120.044 38.472C120.044 36.139 118.632 32.937 116.529 31.887C116.475 31.86 116.453 31.794 116.48 31.74C116.507 31.686 116.573 31.664 116.627 31.691C118.802 32.776 120.263 36.073 120.263 38.471C120.263 38.532 120.214 38.581 120.153 38.581Z" fill="black"/>
<path d="M112.439 23.012C114.749 8.25501 133.861 8.67301 141.198 13.595C137.423 18.708 123.987 22.394 123.987 22.394C123.987 22.394 122.347 32.884 121.076 33.445C121.076 33.445 119.152 28.476 115.781 29.509C112.405 30.542 113.014 40.518 119.293 42.579L125.812 50.497C114.725 46.784 110.223 37.141 112.439 23.012Z" fill="#503C2A"/>
<path d="M145.038 25.415C144.906 26.371 143.431 25.768 141.831 25.547C140.231 25.326 138.695 25.162 138.827 24.206C138.959 23.25 140.336 22.75 141.931 23.032C143.785 23.358 145.17 24.458 145.038 25.415Z" fill="#503C2A"/>
<path d="M127.004 25.097C127.114 26.056 128.602 25.487 130.207 25.303C131.812 25.119 133.351 24.991 133.241 24.032C133.131 23.073 131.767 22.542 130.165 22.786C128.304 23.07 126.894 24.138 127.004 25.097Z" fill="#503C2A"/>
<path d="M137.547 30.327C136.699 30.272 136.246 31.357 136.128 32.34C136.033 33.138 135.79 34.975 136.088 36.644C136.455 38.694 138.181 39.882 139.312 39.758C140.443 39.634 141.394 37.872 141.121 37.237C140.848 36.603 139.389 36.176 139.389 36.176C139.389 36.176 138.811 32.978 138.709 32.255C138.609 31.532 138.396 30.381 137.547 30.327Z" fill="#9F5936"/>
<path d="M135.49 45.092C133.961 45.092 132.822 44.296 132.766 44.257C132.717 44.222 132.705 44.154 132.74 44.105C132.775 44.056 132.844 44.044 132.892 44.079C132.907 44.09 134.43 45.151 136.257 44.801C136.315 44.789 136.374 44.828 136.385 44.888C136.397 44.947 136.358 45.005 136.298 45.016C136.02 45.07 135.749 45.092 135.49 45.092Z" fill="black"/>
<path d="M140.441 41.045C140.441 41.045 134.429 42.159 130.776 39.111C130.776 39.111 131.133 43.049 134.566 43.763C139.324 44.752 140.441 41.045 140.441 41.045Z" fill="#3C2215"/>
<mask id="mask11_18_306" style="mask-type:luminance" maskUnits="userSpaceOnUse" x="130" y="39" width="11" height="5">
<path d="M140.441 41.045C140.441 41.045 134.429 42.159 130.776 39.111C130.776 39.111 131.133 43.049 134.566 43.763C139.324 44.752 140.441 41.045 140.441 41.045Z" fill="white"/>
</mask>
<g mask="url(#mask11_18_306)">
<path d="M130.394 39.808C132.144 40.629 134.164 40.764 136.015 40.608C136.736 41.259 137.832 42.79 137.7 44.017C137.102 44.172 135.946 44.283 135.258 44.232C131.201 43.932 130.394 39.808 130.394 39.808Z" fill="#A64B43"/>
</g>
<mask id="mask12_18_306" style="mask-type:luminance" maskUnits="userSpaceOnUse" x="130" y="39" width="11" height="5">
<path d="M140.441 41.045C140.441 41.045 134.429 42.159 130.776 39.111C130.776 39.111 131.133 43.049 134.566 43.763C139.324 44.752 140.441 41.045 140.441 41.045Z" fill="white"/>
</mask>
<g mask="url(#mask12_18_306)">
<path d="M130.312 39.983C130.312 39.983 131.451 41.199 133.554 41.853C135.855 42.568 139.231 42.824 140.082 40.962L130.458 38.284L130.312 39.983Z" fill="white"/>
</g>
<path opacity="0.7" d="M135.659 50.304C135.659 50.304 131.968 50.673 128.954 49.418C128.954 49.418 131.388 54.266 135.688 53.165L135.659 50.304Z" fill="#B6754A"/>
<path d="M125.837 53.38C125.837 53.38 128.66 56.137 133.125 59.615C133.125 59.615 135.918 57.895 135.946 53.259C135.946 53.259 140.694 53.176 145.538 54.719C150.382 56.262 156.219 68.431 156.219 68.431C156.219 68.431 153.611 78.245 146.159 78.742C146.159 78.742 144.544 88.74 145.165 91.411C145.786 94.081 146.918 100.81 147.221 103.19C147.221 103.19 143.245 107.619 134.765 107.806C126.286 107.992 121.344 105.26 114.189 104.701C114.189 104.701 115.418 95.386 115.729 88.865C116.039 82.344 115.188 79.375 115.188 79.375L113.382 81.972C113.382 81.972 99.6446 79.627 100.142 71.888C100.142 71.888 107.697 58.091 115.543 54.71C120.154 52.721 125.837 53.38 125.837 53.38Z" fill="#F1CB4B"/>
</svg>
