<svg width="55" height="59" viewBox="0 0 55 59" fill="none" xmlns="http://www.w3.org/2000/svg">
<path d="M49.9552 2H5.04477C3.36319 2 2 3.36319 2 5.04477V42.8719C2 44.5535 3.36319 45.9166 5.04477 45.9166H17.4102C18.4062 45.9166 19.3393 46.4039 19.9086 47.2212L25.2686 54.9166C26.5109 56.7001 29.1679 56.6452 30.3353 54.8119L35.1025 47.3259C35.6615 46.4481 36.6301 45.9166 37.6708 45.9166H49.9552C51.6368 45.9166 53 44.5535 53 42.8719V5.04477C53 3.36319 51.6368 2 49.9552 2Z" stroke="#F9C162" stroke-width="2.83333"/>
<path d="M26.6746 38.2239L26.5363 38.0898L16.841 28.6019C15.1421 26.9399 14.1792 24.6073 14.1792 22.1639V21.9715C14.1792 17.8661 16.9461 14.3439 20.7755 13.5741C22.9559 13.1309 25.186 13.6616 26.9624 14.9795C27.4604 15.3527 27.9253 15.7842 28.3459 16.2799C28.5783 16 28.8273 15.7434 29.0929 15.5043C29.2977 15.3177 29.508 15.1428 29.7293 14.9795C31.5057 13.6616 33.7358 13.1309 35.9162 13.5683C39.7456 14.338 42.5125 17.8661 42.5125 21.9715V22.1639C42.5125 24.6073 41.5496 26.9399 39.8507 28.6019L30.1554 38.0898L30.0171 38.2239C29.5633 38.6671 28.9656 38.9179 28.3459 38.9179C27.7261 38.9179 27.1284 38.673 26.6746 38.2239ZM27.4106 19.3765C27.3885 19.359 27.3719 19.3356 27.3553 19.3123L26.3703 18.146L26.3647 18.1402C25.0864 16.6298 23.1551 15.9417 21.2736 16.3207C18.6948 16.8397 16.8354 19.2073 16.8354 21.9715V22.1639C16.8354 23.8259 17.494 25.4179 18.6506 26.5492L28.3459 36.0371L38.0412 26.5492C39.1977 25.4179 39.8563 23.8259 39.8563 22.1639V21.9715C39.8563 19.2132 37.9969 16.8397 35.4237 16.3207C33.5421 15.9417 31.6053 16.6356 30.3325 18.1402C30.3325 18.1402 30.3325 18.1402 30.327 18.146C30.3214 18.1518 30.327 18.146 30.3214 18.1518L29.3364 19.3181C29.3198 19.3415 29.2977 19.359 29.2811 19.3823C29.0321 19.6447 28.6945 19.7905 28.3459 19.7905C27.9972 19.7905 27.6597 19.6447 27.4106 19.3823V19.3765Z" fill="#F9C162"/>
</svg>
