<svg width="390" height="260" viewBox="0 0 390 260" fill="none" xmlns="http://www.w3.org/2000/svg">
<path d="M483 260H-50.4857L-79.3595 92.6565C-84.971 60.1339 -51.0037 35.1913 -21.6525 50.2815L-12.0857 55.2L39.5042 84.1366C52.6094 91.4873 66.5243 97.2906 80.9689 101.43L119.365 112.432C131.007 115.768 143.456 114.852 154.485 109.849L183.256 96.7947C185.594 95.734 187.825 94.4507 189.917 92.9626L240.281 57.1344C242.09 55.847 243.79 54.4112 245.361 52.8417L268.28 29.951C282.654 15.5944 305.506 14.2927 321.418 26.9243L322.012 27.3964C335.693 38.2577 354.84 38.9849 369.306 29.1927L377.927 23.3567C381.215 21.1313 384.815 19.4077 388.61 18.2425L441.794 1.91427C453.558 -1.6976 466.351 1.78963 474.654 10.8721C480.023 16.7439 483 24.412 483 32.368V260Z" fill="#283F44"/>
</svg>
