<svg width="76" height="22" viewBox="0 0 76 22" fill="none" xmlns="http://www.w3.org/2000/svg">
<rect width="76" height="22" rx="11" fill="#FF647C" fill-opacity="0.15"/>
<path d="M17.8425 8.51L16.7085 8.846C16.5545 8.076 15.6865 7.502 14.6085 7.502C13.4465 7.502 12.5645 8.132 12.5645 9.014C12.5645 9.476 12.7885 9.826 13.3345 10.092C13.8945 10.358 14.2725 10.484 15.1685 10.708C15.8265 10.862 16.1485 10.946 16.7505 11.24C17.5905 11.618 18.0665 12.206 18.1225 13.326C18.1225 14.166 17.8005 14.852 17.1565 15.37C16.5265 15.888 15.7005 16.154 14.7065 16.154C13.7965 16.154 13.0265 15.944 12.3965 15.51C11.7665 15.076 11.3605 14.544 11.1925 13.886L12.3125 13.55C12.3825 13.97 12.6485 14.32 13.0965 14.614C13.5445 14.908 14.0765 15.048 14.7065 15.048C15.3645 15.048 15.8965 14.894 16.3305 14.586C16.7645 14.278 16.9885 13.886 16.9885 13.41C16.9885 12.92 16.7505 12.556 16.2885 12.318C15.8405 12.08 15.4765 11.954 14.8605 11.8C14.5805 11.73 14.3985 11.674 14.3005 11.66L13.7685 11.506C13.5165 11.422 13.3345 11.352 13.2365 11.31L12.7745 11.1C12.3685 10.918 12.2565 10.778 11.9765 10.512C11.6125 10.176 11.4445 9.7 11.4445 9.084C11.4445 8.3 11.7385 7.656 12.3265 7.166C12.9145 6.662 13.6705 6.41 14.5805 6.41C15.4065 6.41 16.1205 6.606 16.7085 7.012C17.3105 7.404 17.6885 7.908 17.8425 8.51ZM25.7503 13.2H20.3463C20.4163 13.774 20.6683 14.236 21.0883 14.614C21.5223 14.992 22.0403 15.174 22.6423 15.174C23.4403 15.174 24.0703 14.866 24.5043 14.264L25.4983 14.586C24.9243 15.538 23.8743 16.14 22.6423 16.14C21.6763 16.14 20.8783 15.832 20.2343 15.202C19.6043 14.572 19.2823 13.788 19.2823 12.85C19.2823 11.912 19.5903 11.142 20.2203 10.512C20.8503 9.882 21.6203 9.56 22.5443 9.56C23.4543 9.56 24.2243 9.882 24.8403 10.512C25.4703 11.142 25.7783 11.912 25.7783 12.85C25.7783 13.004 25.7643 13.13 25.7503 13.2ZM20.3603 12.374H24.7143C24.5043 11.296 23.6363 10.526 22.5163 10.526C21.4383 10.526 20.5703 11.296 20.3603 12.374ZM33.0742 11.464L32.0382 11.786C31.6882 11.058 30.9602 10.596 30.0782 10.596C29.4482 10.596 28.9162 10.806 28.4962 11.24C28.0762 11.674 27.8662 12.206 27.8662 12.85C27.8662 13.494 28.0762 14.026 28.4962 14.46C28.9162 14.894 29.4482 15.104 30.0782 15.104C30.9602 15.104 31.6882 14.642 32.0382 13.914L33.0742 14.236C32.5702 15.398 31.4362 16.14 30.0782 16.14C29.1402 16.14 28.3562 15.832 27.7262 15.202C27.0962 14.572 26.7882 13.788 26.7882 12.85C26.7882 11.912 27.0962 11.128 27.7262 10.498C28.3562 9.868 29.1402 9.56 30.0782 9.56C31.4362 9.56 32.5702 10.302 33.0742 11.464ZM33.698 10.61V9.7H34.72V8.398H35.742V9.7H37.534V10.61H35.742V14.012C35.742 14.586 36.134 15.006 36.652 15.006H37.534V16H36.582C36.05 16 35.602 15.818 35.252 15.468C34.902 15.104 34.72 14.656 34.72 14.138V10.61H33.698ZM39.9043 16H38.8683V9.7H39.9043V16ZM38.6723 7.642C38.6023 6.732 40.1703 6.732 40.0863 7.642C40.0863 8.048 39.7923 8.356 39.3863 8.356C38.9803 8.356 38.6723 8.076 38.6723 7.642ZM42.2594 15.202C41.6294 14.572 41.3214 13.788 41.3214 12.85C41.3214 11.912 41.6294 11.128 42.2594 10.498C42.8894 9.868 43.6734 9.56 44.6114 9.56C45.5494 9.56 46.3194 9.868 46.9494 10.498C47.5794 11.128 47.9014 11.912 47.9014 12.85C47.9014 13.788 47.5794 14.572 46.9494 15.202C46.3194 15.832 45.5494 16.14 44.6114 16.14C43.6734 16.14 42.8894 15.832 42.2594 15.202ZM43.0294 11.24C42.6094 11.674 42.3994 12.206 42.3994 12.85C42.3994 13.494 42.6094 14.026 43.0294 14.46C43.4494 14.894 43.9814 15.104 44.6114 15.104C45.2414 15.104 45.7734 14.894 46.1934 14.46C46.6134 14.026 46.8234 13.494 46.8234 12.85C46.8234 12.206 46.6134 11.674 46.1934 11.24C45.7734 10.806 45.2414 10.596 44.6114 10.596C43.9814 10.596 43.4494 10.806 43.0294 11.24ZM49.3273 16V9.7H50.3493V10.75C50.8113 9.952 51.5533 9.56 52.5753 9.56C53.3173 9.56 53.9193 9.798 54.3953 10.274C54.8853 10.75 55.1233 11.352 55.1233 12.066V16H54.0873V12.346C54.0873 11.324 53.3173 10.554 52.2953 10.554C51.7493 10.554 51.2873 10.722 50.9093 11.072C50.5313 11.422 50.3493 11.842 50.3493 12.36V16H49.3273ZM62.7779 7.95L60.8459 8.986L60.3699 8.02L63.1139 6.55H63.8699V16H62.7779V7.95Z" fill="#FF647C"/>
</svg>
