<svg width="390" height="202" viewBox="0 0 390 202" fill="none" xmlns="http://www.w3.org/2000/svg">
<g opacity="0.2">
<circle cx="208" cy="199" r="1" fill="#D9D9D9"/>
<circle cx="207" cy="14" r="1" fill="#D9D9D9"/>
<circle cx="84" cy="119" r="1" fill="#D9D9D9"/>
<circle cx="293" cy="86" r="1" fill="#D9D9D9"/>
<circle cx="208" cy="149" r="1" fill="#D9D9D9"/>
<circle cx="224" cy="67" r="1" fill="#D9D9D9"/>
<circle cx="84" cy="69" r="1" fill="#D9D9D9"/>
<circle cx="224" cy="112" r="1" fill="#D9D9D9"/>
<circle cx="139" cy="130" r="1" fill="#D9D9D9"/>
<circle cx="15" cy="50" r="1" fill="#D9D9D9"/>
<circle cx="348" cy="108" r="1" fill="#D9D9D9"/>
<circle cx="139" cy="175" r="1" fill="#D9D9D9"/>
<circle cx="220" cy="3" r="1" fill="#D9D9D9"/>
<circle cx="15" cy="95" r="1" fill="#D9D9D9"/>
<circle cx="306" cy="75" r="1" fill="#D9D9D9"/>
<circle cx="110" cy="201" r="1" fill="#D9D9D9"/>
<circle cx="237" cy="56" r="1" fill="#D9D9D9"/>
<circle cx="177" cy="49" r="1" fill="#D9D9D9"/>
<circle cx="237" cy="101" r="1" fill="#D9D9D9"/>
<circle cx="142" cy="45" r="1" fill="#D9D9D9"/>
<circle cx="208" cy="127" r="1" fill="#D9D9D9"/>
<circle cx="221" cy="188" r="1" fill="#D9D9D9"/>
<circle cx="361" cy="97" r="1" fill="#D9D9D9"/>
<circle cx="97" cy="108" r="1" fill="#D9D9D9"/>
<circle cx="223" cy="13" r="1" fill="#D9D9D9"/>
<circle cx="221" cy="138" r="1" fill="#D9D9D9"/>
<circle cx="309" cy="85" r="1" fill="#D9D9D9"/>
<circle cx="97" cy="58" r="1" fill="#D9D9D9"/>
<circle cx="240" cy="66" r="1" fill="#D9D9D9"/>
<circle cx="152" cy="119" r="1" fill="#D9D9D9"/>
<circle cx="240" cy="111" r="1" fill="#D9D9D9"/>
<circle cx="28" cy="39" r="1" fill="#D9D9D9"/>
<circle cx="211" cy="137" r="1" fill="#D9D9D9"/>
<circle cx="152" cy="164" r="1" fill="#D9D9D9"/>
<circle cx="364" cy="107" r="1" fill="#D9D9D9"/>
<circle cx="28" cy="84" r="1" fill="#D9D9D9"/>
<circle cx="248" cy="8" r="1" fill="#D9D9D9"/>
<circle cx="123" cy="190" r="1" fill="#D9D9D9"/>
<circle cx="334" cy="80" r="1" fill="#D9D9D9"/>
<circle cx="265" cy="61" r="1" fill="#D9D9D9"/>
<circle cx="190" cy="38" r="1" fill="#D9D9D9"/>
<circle cx="265" cy="106" r="1" fill="#D9D9D9"/>
<circle cx="155" cy="34" r="1" fill="#D9D9D9"/>
<circle cx="236" cy="132" r="1" fill="#D9D9D9"/>
<circle cx="224" cy="198" r="1" fill="#D9D9D9"/>
<circle cx="389" cy="102" r="1" fill="#D9D9D9"/>
<circle cx="100" cy="118" r="1" fill="#D9D9D9"/>
<circle cx="224" cy="148" r="1" fill="#D9D9D9"/>
<circle cx="315" cy="110" r="1" fill="#D9D9D9"/>
<circle cx="100" cy="68" r="1" fill="#D9D9D9"/>
<circle cx="246" cy="91" r="1" fill="#D9D9D9"/>
<circle cx="155" cy="129" r="1" fill="#D9D9D9"/>
<circle cx="160" cy="14" r="1" fill="#D9D9D9"/>
<circle cx="31" cy="49" r="1" fill="#D9D9D9"/>
<circle cx="155" cy="174" r="1" fill="#D9D9D9"/>
<circle cx="284" cy="10" r="1" fill="#D9D9D9"/>
<circle cx="31" cy="94" r="1" fill="#D9D9D9"/>
<circle cx="0.5" cy="0.5" r="0.5" transform="matrix(1 0 0 -1 174 1)" fill="#D9D9D9"/>
<circle cx="126" cy="200" r="1" fill="#D9D9D9"/>
<circle cx="0.5" cy="0.5" r="0.5" transform="matrix(1 0 0 -1 260 73)" fill="#D9D9D9"/>
<circle cx="2" cy="120" r="1" fill="#D9D9D9"/>
<circle cx="193" cy="48" r="1" fill="#D9D9D9"/>
<circle cx="158" cy="44" r="1" fill="#D9D9D9"/>
<circle cx="163" cy="71" r="1" fill="#D9D9D9"/>
<circle cx="0.5" cy="0.5" r="0.5" transform="matrix(1 0 0 -1 315 95)" fill="#D9D9D9"/>
<circle cx="125" cy="113" r="1" fill="#D9D9D9"/>
<circle cx="163" cy="21" r="1" fill="#D9D9D9"/>
<circle cx="125" cy="63" r="1" fill="#D9D9D9"/>
<circle cx="180" cy="124" r="1" fill="#D9D9D9"/>
<circle cx="56" cy="44" r="1" fill="#D9D9D9"/>
<circle cx="180" cy="169" r="1" fill="#D9D9D9"/>
<circle cx="56" cy="89" r="1" fill="#D9D9D9"/>
<circle cx="151" cy="195" r="1" fill="#D9D9D9"/>
<circle cx="27" cy="115" r="1" fill="#D9D9D9"/>
<circle cx="218" cy="43" r="1" fill="#D9D9D9"/>
<circle cx="180" cy="85" r="1" fill="#D9D9D9"/>
<circle cx="230" cy="173" r="1" fill="#D9D9D9"/>
<circle cx="106" cy="93" r="1" fill="#D9D9D9"/>
<circle cx="161" cy="154" r="1" fill="#D9D9D9"/>
<circle cx="37" cy="74" r="1" fill="#D9D9D9"/>
<circle cx="161" cy="199" r="1" fill="#D9D9D9"/>
<circle cx="37" cy="119" r="1" fill="#D9D9D9"/>
<circle cx="199" cy="73" r="1" fill="#D9D9D9"/>
<circle cx="161" cy="115" r="1" fill="#D9D9D9"/>
<circle cx="0.5" cy="0.5" r="0.5" transform="matrix(1 0 0 -1 175 186)" fill="#D9D9D9"/>
<circle cx="0.5" cy="0.5" r="0.5" transform="matrix(1 0 0 -1 51 106)" fill="#D9D9D9"/>
<circle cx="0.5" cy="0.5" r="0.5" transform="matrix(1 0 0 -1 175 136)" fill="#D9D9D9"/>
<circle cx="0.5" cy="0.5" r="0.5" transform="matrix(1 0 0 -1 51 56)" fill="#D9D9D9"/>
<circle cx="0.5" cy="0.5" r="0.5" transform="matrix(1 0 0 -1 106 117)" fill="#D9D9D9"/>
<circle cx="0.5" cy="0.5" r="0.5" transform="matrix(1 0 0 -1 106 162)" fill="#D9D9D9"/>
<circle cx="0.5" cy="0.5" r="0.5" transform="matrix(1 0 0 -1 77 188)" fill="#D9D9D9"/>
<circle cx="0.5" cy="0.5" r="0.5" transform="matrix(1 0 0 -1 230 158)" fill="#D9D9D9"/>
<circle cx="0.5" cy="0.5" r="0.5" transform="matrix(1 0 0 -1 106 78)" fill="#D9D9D9"/>
</g>
</svg>
